<svg width="24" height="18" fill="none" xmlns="http://www.w3.org/2000/svg"><path fill-rule="evenodd" clip-rule="evenodd" d="M20.881 4.6c.03.113.044.296.044.55 0 2.03-.51 3.991-1.531 5.88a12.23 12.23 0 01-4.42 4.782c-2.07 1.325-4.447 1.988-7.13 1.988-2.567 0-4.915-.663-7.044-1.989.32.029.685.043 1.094.043 2.129 0 4.04-.635 5.73-1.904-1.02 0-1.917-.29-2.69-.867-.773-.579-1.305-1.305-1.597-2.18.292.029.57.043.832.043.408 0 .816-.042 1.225-.127a4.655 4.655 0 01-2.625-1.565c-.7-.818-1.05-1.749-1.05-2.793v-.084a4.433 4.433 0 002.056.592 4.988 4.988 0 01-1.488-1.608 4.158 4.158 0 01-.568-2.136c0-.776.218-1.516.656-2.221a12.59 12.59 0 004.178 3.3 13.057 13.057 0 005.272 1.354 5.971 5.971 0 01-.088-1.016c0-.79.205-1.53.613-2.22a4.422 4.422 0 011.662-1.63A4.554 4.554 0 0116.287.2c.671 0 1.291.127 1.86.38a5.203 5.203 0 011.51 1.016 9.546 9.546 0 002.93-1.058c-.35 1.044-1.02 1.862-2.012 2.454.875-.113 1.75-.352 2.625-.719A9.92 9.92 0 0120.88 4.6z" fill="#BDBDBD"/></svg>